#!OML:ASF E:/inclinewalkrobotboard/Project1/Captureday1/Session1/subject1.ASF
:FULLY-SPECIFIED
:DEGREES
138
root 0 0 0 1.2576522868100866 -3.591186514601581 1.8995513960342238
lowerback 12.042963957042613 0.8481602984777853 -0.10757667445757979
upperback -4.4094187343566835 1.0652192070234605 -0.6023720957807212
thorax -11.573016018634828 0.48718625188881753 -0.8027394925766655
lowerneck -5.962159539273729 1.7281773212326137 4.699926723218781
upperneck 18.393738612125855 3.2869449739180396 -8.468621953904043
head 6.731605897612745 1.2126611320197895 -3.2529309579014107
rclavicle -3.8674481126380346E-16 -2.0995611983664015E-15
rhumerus 20.787404921372307 14.829757951415049 -47.294626715626265
rradius 72.87558437946404
rwrist 27.418513485168262
rhand -34.5593300661015 -57.651827512948785
rfingers 7.12502000000002
rthumb -7.7526809348101455 -87.60701414854114
lclavicle -2.2363724394576377E-15 4.3012390095678175E-16
lhumerus 21.89075090894662 -13.061192643777797 44.45246141620713
lradius 70.74027307028297
lwrist -22.50047586325679
lhand -45.09546516025579 -70.83703361446533
lfingers 7.125020000000016
lthumb -17.856935228658248 -41.89379854547781
rfemur -25.6146957352555 -2.375794306365255 16.878744264300103
rtibia 54.52893699986433
rfoot -31.331959593826802 -17.85005559112447
rtoes -19.01579628432304
lfemur -27.994631431349667 2.8365466545091196 -18.347624693562164
ltibia 54.797347005765005
lfoot -33.21045260372772 -3.536241092401189
ltoes -20.639151332988476
139
root 0 0 0 1.2581908919571565 -3.59167146886269 1.8997678381226426
lowerback 12.042906071447003 0.848263432216988 -0.10767080990759059
upperback -4.409474869030344 1.065303126834831 -0.6024607500876381
thorax -11.573037161910488 0.48724249228221167 -0.8027444590400958
lowerneck -5.961946886325331 1.7282882638238417 4.699911310742283
upperneck 18.39372847241524 3.2871150559598847 -8.468643794067193
head 6.731555989438794 1.2127447092273953 -3.252904653389913
rclavicle -3.765700547958764E-16 -2.1118516156324687E-15
rhumerus 20.789829073177962 14.833598829511365 -47.294889995043526
rradius 72.87517601987356
rwrist 27.418017737879925
rhand -34.55805637239061 -57.65181155612704
rfingers 7.12502000000002
rthumb -7.751579697865477 -87.60808875728492
lclavicle -2.2009471509160128E-15 4.1760674691395325E-16
lhumerus 21.88984919517734 -13.057968323167627 44.45107968615895
lradius 70.7383900260296
lwrist -22.502722708571746
lhand -45.09578085197274 -70.8417369404194
lfingers 7.125020000000016
lthumb -17.857406837707178 -41.89855927563586
rfemur -25.616606097939815 -2.3710530375238177 16.876543251066966
rtibia 54.521462756152154
rfoot -31.336984688341335 -17.853730703024596
rtoes -19.029841267705198
lfemur -27.991116758682764 2.8336569931697304 -18.344095099359684
ltibia 54.789757513169604
lfoot -33.21760133466333 -3.5332689383195763
ltoes -20.650905066926505
140
root 0 0 0 1.2582382158125451 -3.5918456515795696 1.8996524450004686
lowerback 12.042867302856711 0.8482883628864335 -0.10761906362075757
upperback -4.409500034561065 1.065342628102526 -0.6024385430356797
thorax -11.573039698898238 0.4872615937405094 -0.8027596377215118
lowerneck -5.961892594909225 1.728317108398164 4.699912594362668
upperneck 18.393740257933455 3.2871561272944714 -8.468676510119682
head 6.731548379757512 1.2127588981090494 -3.2529104783745817
rclavicle -3.7662190097197287E-16 -2.1120942751929222E-15
rhumerus 20.789738311037937 14.833349796835543 -47.2946516277495
rradius 72.87520899649164
rwrist 27.418233112484614
rhand -34.558116291791166 -57.651945032876945
rfingers 7.12502000000002
rthumb -7.751616571176866 -87.60827657780682
lclavicle -2.2025588556523618E-15 4.193092807677805E-16
lhumerus 21.89013600846156 -13.058182923307324 44.45090007862203
lradius 70.73869235126648
lwrist -22.502772316306995
lhand -45.09590415616223 -70.84223191415427
lfingers 7.125020000000016
lthumb -17.857509730121077 -41.899161686262985
rfemur -25.615360972637937 -2.3710554060120943 16.87687433932271
rtibia 54.52064125139056
rfoot -31.338431335032563 -17.852943172680682
rtoes -19.033944260393085
lfemur -27.989232424130215 2.8321119496526235 -18.34204874544044
ltibia 54.785121914129114
lfoot -33.218353771382155 -3.5324269146723433
ltoes -20.65731832879463
141
root 0 0 0 1.2581828476393189 -3.5918130801212103 1.899609546438716
lowerback 12.042793627951877 0.8483005853813226 -0.10760737448637281
upperback -4.4094976386393485 1.0653583623983565 -0.6024244282522683
thorax -11.572996497808994 0.48726952519095845 -0.8027516446629921
lowerneck -5.961835770377925 1.728351736041305 4.699973495723235
upperneck 18.393801689341256 3.287208472214542 -8.468764219048541
head 6.731557171757716 1.212778388529848 -3.2529407199851903
rclavicle -3.777944515200168E-16 -2.112478498028226E-15
rhumerus 20.789202123857862 14.83260327264089 -47.294136343234356
rradius 72.87480645834037
rwrist 27.418792883532127
rhand -34.5581524965831 -57.65215519910432
rfingers 7.12502000000002
rthumb -7.751659734367335 -87.60841743424578
lclavicle -2.2030933301427533E-15 4.1912113044830836E-16
lhumerus 21.890046539830536 -13.057905823108864 44.45077365081312
lradius 70.73856537101153
lwrist -22.502934937577514
lhand -45.09592648801514 -70.8425797209569
lfingers 7.125020000000016
lthumb -17.857534320908183 -41.899536550417935
rfemur -25.61384241419431 -2.371274678291403 16.876725978422144
rtibia 54.521602632804125
rfoot -31.33728960988547 -17.85163062436736
rtoes -19.036090247534084
lfemur -27.987402941844795 2.831985596787647 -18.342193883856666
ltibia 54.785486556999686
lfoot -33.216629939127344 -3.5342024113468886
ltoes -20.659078817732855
142
root 0 0 0 1.2581403119598766 -3.5917744381465697 1.89960649880859
lowerback 12.04277144154513 0.8483036839818766 -0.10761020351293771
upperback -4.409497000132905 1.0653613287717285 -0.6024229164797449
thorax -11.57298450077633 0.4872708752927615 -0.8027488706941377
lowerneck -5.96181450902002 1.728363254065061 4.700004017269231
upperneck 18.393821122865507 3.2872247890261646 -8.468802296079492
head 6.731559155402758 1.2127843220230172 -3.2529559792698244
rclavicle -3.779848154884622E-16 -2.1127025951960545E-15
rhumerus 20.788844348883167 14.832072076927043 -47.293760433769506
rradius 72.8745320322267
rwrist 27.41920105972799
rhand -34.558163109219436 -57.65226623194477
rfingers 7.12502000000002
rthumb -7.751674073029644 -87.60851288861832
lclavicle -2.2031951324313096E-15 4.1895194735439933E-16
lhumerus 21.88997995127702 -13.057646305969572 44.450648947315074
lradius 70.73843569489048
lwrist -22.503115317563477
lhand -45.095908978661015 -70.84281753912737
lfingers 7.125020000000016
lthumb -17.857518522754404 -41.89978823817566
rfemur -25.613230215995188 -2.371411599571611 16.876627850453602
rtibia 54.52223523824982
rfoot -31.33642155291727 -17.851151654089293
rtoes -19.036416437761453
lfemur -27.986783765750005 2.832132147883772 -18.342572882026186
ltibia 54.78648008474189
lfoot -33.21585012086605 -3.535186351857188
ltoes -20.659136700105144
